<?xml version="1.0" encoding="utf-8"?>
<!-- Generator: Adobe Illustrator 24.1.1, SVG Export Plug-In . SVG Version: 6.00 Build 0)  -->
<svg version="1.1" id="Layer_1" xmlns="http://www.w3.org/2000/svg" xmlns:xlink="http://www.w3.org/1999/xlink" x="0px" y="0px"
	 viewBox="0 0 512 512" style="enable-background:new 0 0 512 512;" xml:space="preserve">
<style type="text/css">
	.st0{fill:#333333;}
</style>
<g id="XMLID_1_">
	<path id="XMLID_6_" class="st0" d="M256,0C150.4,0,63.8,80.3,63.8,175.7C63.8,320.6,256,512,256,512s192.2-191.4,192.2-336.3
		C448.2,80.3,361.6,0,256,0z M256,465.5C196.1,400.9,96.1,270.2,96.1,175.7c0-79.6,71.7-144.1,159.9-144.1
		c42.5,0,83.5,15,114.2,43.3c29.1,27.6,46.5,63,46.5,100.8C415.9,270.2,315.9,400.9,256,465.5z M319.8,175.7
		c0,35.4-28.4,63.8-63.8,63.8s-63.8-28.4-63.8-63.8s28.4-63.8,63.8-63.8S319.8,140.2,319.8,175.7z"/>
</g>
</svg>
